<?xml version="1.0" encoding="UTF-8" standalone="no"?>
<svg
   xmlns:dc="http://purl.org/dc/elements/1.1/"
   xmlns:cc="http://creativecommons.org/ns#"
   xmlns:rdf="http://www.w3.org/1999/02/22-rdf-syntax-ns#"
   xmlns:svg="http://www.w3.org/2000/svg"
   xmlns="http://www.w3.org/2000/svg"
   xmlns:sodipodi="http://sodipodi.sourceforge.net/DTD/sodipodi-0.dtd"
   xmlns:inkscape="http://www.inkscape.org/namespaces/inkscape"
   version="1.0"
   width="1399.000000pt"
   height="1408.000000pt"
   viewBox="0 0 1399.000000 1408.000000"
   preserveAspectRatio="xMidYMid meet"
   id="svg2"
   inkscape:version="0.91 r13725"
   sodipodi:docname="logo-white-converted.svg">
  <defs
     id="defs14" />
  <sodipodi:namedview
     pagecolor="#000000"
     bordercolor="#666666"
     borderopacity="1"
     objecttolerance="10"
     gridtolerance="10"
     guidetolerance="10"
     inkscape:pageopacity="0"
     inkscape:pageshadow="2"
     inkscape:window-width="1280"
     inkscape:window-height="961"
     id="namedview12"
     showgrid="false"
     inkscape:zoom="0.13409091"
     inkscape:cx="874.375"
     inkscape:cy="880"
     inkscape:window-x="-8"
     inkscape:window-y="-8"
     inkscape:window-maximized="1"
     inkscape:current-layer="svg2" />
  <metadata
     id="metadata4">
Created by potrace 1.12, written by Peter Selinger 2001-2015
<rdf:RDF>
  <cc:Work
     rdf:about="">
    <dc:format>image/svg+xml</dc:format>
    <dc:type
       rdf:resource="http://purl.org/dc/dcmitype/StillImage" />
    <dc:title></dc:title>
  </cc:Work>
</rdf:RDF>
</metadata>
  <g
     transform="translate(0.000000,1408.000000) scale(0.100000,-0.100000)"
     fill="#000000"
     stroke="none"
     id="g6"
     style="fill:#000000">
    <path
       d="M842 9069 c0 -4671 1 -5010 16 -5004 31 11 277 158 284 169 4 6 8 8 8 4 0 -9 254 141 258 153 2 5 8 7 12 4 5 -3 18 3 30 15 11 11 23 19 26 18 13 -3 312 178 306 186 -3 5 0 6 6 3 9 -6 208 103 222 121 3 4 10 8 16 9 16 3 138 76 142 85 2 5 8 8 14 8 11 0 212 116 231 134 7 6 19 12 27 14 8 2 22 9 30 16 8 7 36 23 62 37 l48 24 2 3638 3 3638 2257 2 c1241 1 2254 -1 2252 -4 -2 -4 36 -6 85 -5 49 0 87 -2 85 -5 -2 -3 32 -5 76 -4 44 1 80 -2 80 -5 0 -4 40 -7 89 -6 49 1 87 -2 85 -6 -2 -3 11 -5 31 -4 21 2 32 -1 28 -7 -4 -6 5 -8 26 -4 18 4 30 3 27 -2 -3 -5 7 -9 22 -9 36 -1 65 -7 77 -14 6 -3 22 -5 38 -3 15 2 27 -1 27 -7 0 -6 9 -8 20 -5 11 3 22 2 25 -3 2 -4 16 -6 30 -5 14 2 25 -1 25 -6 0 -5 10 -7 23 -5 12 2 28 -2 36 -8 12 -9 13 -8 6 4 -8 13 -6 13 7 2 9 -7 34 -14 55 -16 21 -1 43 -5 49 -9 6 -3 21 -5 33 -2 12 2 19 0 16 -5 -3 -6 4 -10 17 -10 42 0 58 -3 58 -13 0 -5 7 -7 15 -4 8 4 17 2 20 -4 4 -5 11 -7 16 -4 5 4 9 2 9 -4 0 -5 9 -8 20 -6 11 2 20 0 20 -4 0 -4 7 -8 15 -9 8 -1 22 -3 30 -4 8 -1 15 -6 15 -11 0 -5 7 -7 15 -3 8 3 15 1 15 -4 0 -5 7 -7 15 -4 8 4 15 2 15 -4 0 -6 11 -9 25 -8 15 2 22 -1 18 -7 -4 -6 0 -8 10 -4 9 3 19 2 22 -4 4 -5 11 -7 16 -4 5 4 9 1 9 -5 0 -7 7 -10 15 -7 8 4 17 2 20 -4 4 -5 11 -7 16 -4 5 4 9 1 9 -5 0 -7 6 -10 14 -7 7 3 19 0 26 -6 10 -9 11 -9 6 1 -4 6 10 2 30 -10 25 -15 35 -17 29 -8 -5 9 0 7 13 -4 12 -10 28 -16 36 -13 9 4 22 -1 31 -9 8 -8 19 -13 24 -9 5 3 12 1 16 -5 3 -5 15 -15 27 -21 16 -9 19 -8 13 3 -4 7 2 3 14 -9 24 -25 37 -30 25 -10 -6 9 -5 9 8 0 8 -7 19 -9 23 -5 5 4 5 1 1 -5 -6 -12 4 -16 31 -12 3 0 10 -6 15 -14 4 -9 17 -14 28 -12 11 2 18 0 16 -4 -3 -4 6 -13 20 -20 20 -9 24 -9 19 1 -4 7 0 5 9 -6 8 -10 20 -15 27 -10 8 5 10 3 4 -6 -5 -9 -2 -10 14 -5 14 4 23 1 27 -9 3 -9 10 -14 14 -11 5 3 11 1 15 -5 4 -6 11 -8 16 -5 5 4 9 2 9 -3 0 -6 7 -13 16 -16 10 -4 13 -2 9 7 -4 6 0 4 8 -5 8 -10 17 -14 21 -10 4 4 14 -1 21 -12 8 -10 19 -15 26 -10 8 5 10 3 5 -5 -5 -8 -3 -12 5 -11 20 3 59 -11 59 -21 0 -5 7 -5 17 -2 9 4 14 2 10 -3 -3 -6 3 -16 15 -23 16 -10 19 -10 13 1 -4 7 3 2 15 -12 12 -14 19 -18 15 -10 -5 12 -4 12 7 -1 7 -9 19 -14 26 -11 7 2 11 -2 10 -9 -2 -7 3 -14 10 -15 6 -1 15 -3 20 -4 4 -1 10 -2 15 -1 4 0 6 -5 5 -11 -2 -8 5 -12 16 -10 11 2 15 -1 11 -7 -3 -6 1 -11 9 -11 9 0 16 -5 16 -11 0 -6 7 -8 16 -5 8 3 13 2 10 -2 -3 -4 4 -14 16 -21 14 -9 18 -9 13 -1 -4 7 4 4 19 -5 14 -10 26 -22 26 -27 0 -6 7 -8 15 -4 10 3 15 -1 15 -11 0 -9 3 -13 6 -10 4 3 18 -2 32 -13 13 -11 28 -17 33 -14 5 3 9 1 9 -4 0 -5 12 -17 26 -27 15 -9 23 -12 19 -5 -4 7 4 4 19 -5 14 -10 26 -22 26 -27 0 -6 7 -7 16 -4 11 4 18 -1 21 -14 3 -11 9 -21 14 -21 5 -1 13 -2 18 -3 5 0 13 -5 18 -10 5 -5 2 -6 -7 -2 -8 4 -6 1 4 -8 10 -8 23 -13 27 -10 5 3 9 -1 9 -9 0 -14 26 -32 42 -29 3 1 12 -6 20 -16 11 -15 11 -16 -2 -7 -9 6 -7 2 3 -7 11 -10 26 -18 34 -18 8 0 12 -4 9 -8 -2 -4 4 -14 16 -21 15 -9 18 -10 13 0 -5 8 -4 10 3 5 7 -4 12 -13 12 -21 0 -8 5 -17 12 -21 7 -5 9 -2 3 7 -4 8 4 1 17 -15 16 -19 29 -26 38 -21 9 5 11 4 6 -3 -4 -7 0 -12 10 -12 10 0 15 -3 11 -6 -9 -9 61 -66 73 -59 6 4 9 2 8 -3 -2 -6 2 -11 7 -13 6 -2 21 -15 35 -29 14 -15 31 -25 38 -22 7 2 12 -4 12 -13 0 -9 5 -13 10 -10 6 3 10 1 10 -5 0 -6 12 -23 27 -38 15 -15 22 -20 17 -12 -5 9 -1 7 8 -3 10 -11 17 -22 15 -26 -2 -3 17 -26 41 -51 24 -25 41 -39 36 -31 -5 9 -3 12 4 7 7 -4 12 -14 12 -22 0 -8 11 -19 25 -24 14 -5 25 -12 25 -15 0 -4 -6 -3 -12 1 -7 5 3 -9 22 -29 19 -20 40 -37 47 -37 6 0 15 -5 19 -12 5 -7 2 -8 -7 -3 -8 4 -5 -1 6 -12 11 -11 22 -19 24 -17 2 2 15 -12 28 -31 13 -19 31 -35 39 -35 8 0 13 -4 9 -9 -3 -5 4 -13 16 -16 11 -4 18 -9 15 -13 -3 -3 4 -10 17 -16 12 -7 22 -19 22 -28 0 -9 4 -20 9 -25 5 -5 6 -2 1 7 -4 8 1 6 12 -5 11 -11 18 -26 15 -34 -3 -9 -1 -12 6 -7 7 4 12 1 12 -9 0 -10 5 -13 12 -9 8 5 9 2 5 -9 -4 -11 -1 -17 9 -17 8 0 18 -8 21 -17 4 -10 14 -24 22 -31 10 -9 11 -11 2 -6 -9 5 -12 3 -7 -4 4 -7 14 -12 21 -12 9 0 12 -6 8 -17 -4 -11 -3 -14 5 -9 7 4 12 1 12 -8 0 -8 14 -24 30 -36 17 -12 30 -27 30 -35 0 -7 16 -29 36 -49 19 -19 33 -40 30 -44 -3 -5 4 -18 17 -28 l22 -19 -20 24 c-11 14 -15 21 -8 17 7 -3 22 -21 35 -39 13 -18 16 -28 7 -22 -8 6 -5 1 7 -10 13 -11 24 -26 26 -34 2 -8 11 -23 21 -33 10 -10 15 -23 12 -28 -4 -6 -1 -10 5 -10 6 0 8 -4 5 -10 -3 -5 1 -10 10 -10 9 0 13 -5 9 -11 -3 -6 7 -24 22 -41 16 -17 22 -27 14 -23 -13 8 -13 7 0 -11 8 -10 21 -23 28 -27 6 -4 12 -13 12 -19 0 -6 8 -20 18 -31 12 -15 13 -19 2 -13 -8 4 -4 -2 9 -13 13 -12 20 -21 15 -21 -4 0 1 -7 12 -16 10 -8 13 -12 6 -9 -11 6 -12 3 -3 -14 7 -11 15 -21 19 -21 4 0 13 -9 20 -21 11 -17 11 -20 0 -14 -7 3 -3 -2 9 -13 13 -11 24 -30 26 -42 2 -13 11 -28 20 -35 9 -7 14 -15 10 -18 -3 -4 -1 -7 6 -7 7 0 9 -4 6 -10 -3 -5 -1 -10 5 -10 6 0 8 -4 5 -10 -3 -5 7 -27 22 -47 15 -20 21 -33 13 -28 -13 8 -13 7 -1 -8 7 -9 10 -17 5 -17 -4 0 1 -7 12 -16 10 -8 12 -12 4 -8 -8 4 -4 -4 9 -19 12 -14 20 -30 16 -36 -3 -6 -1 -11 5 -11 6 0 8 -5 5 -10 -3 -5 -1 -10 6 -10 7 0 9 -3 6 -7 -4 -3 1 -15 10 -26 13 -15 14 -19 3 -13 -12 6 -12 5 1 -6 9 -7 14 -19 12 -25 -3 -7 1 -13 8 -13 7 0 9 -3 6 -7 -4 -3 1 -15 10 -26 13 -15 14 -18 3 -12 -11 6 -10 3 3 -12 9 -11 14 -23 10 -26 -3 -4 -1 -7 6 -7 7 0 10 -4 7 -9 -3 -5 1 -14 9 -21 7 -6 11 -19 8 -27 -4 -10 -2 -14 4 -10 6 4 14 0 17 -9 4 -10 2 -13 -7 -8 -9 6 -9 5 0 -8 7 -8 9 -19 5 -23 -4 -5 -1 -5 6 -1 8 5 14 -2 18 -23 4 -17 10 -31 14 -31 5 0 7 -11 6 -25 -2 -14 3 -30 10 -36 7 -6 11 -16 8 -24 -3 -7 0 -16 5 -20 6 -3 9 -10 6 -15 -3 -5 1 -20 8 -32 8 -13 13 -31 12 -41 -2 -10 1 -14 8 -10 6 4 8 0 4 -10 -3 -10 -2 -17 3 -17 5 0 7 -7 4 -15 -4 -8 -1 -15 6 -15 7 0 10 -7 6 -15 -3 -8 0 -15 6 -15 6 0 8 -3 5 -7 -4 -3 -1 -13 6 -21 10 -13 9 -14 -3 -7 -13 8 -13 7 -1 -8 7 -9 10 -17 6 -17 -4 0 -2 -6 4 -13 6 -8 8 -17 4 -20 -3 -4 0 -7 7 -7 7 0 10 -3 7 -7 -4 -3 -1 -13 6 -21 10 -13 9 -14 -2 -8 -9 6 -8 0 4 -17 9 -15 14 -31 10 -37 -3 -5 -1 -10 6 -10 7 0 9 -3 6 -7 -4 -3 -1 -13 6 -21 10 -13 9 -14 -3 -7 -12 7 -13 6 -3 -7 7 -8 10 -18 6 -21 -3 -4 -2 -7 4 -7 6 0 14 -7 17 -16 4 -10 2 -13 -7 -8 -6 4 -5 -1 4 -12 9 -10 15 -31 14 -46 -1 -16 1 -28 5 -28 4 0 6 -13 5 -30 -1 -16 2 -27 6 -25 4 3 6 -11 5 -30 -2 -20 1 -38 6 -41 5 -3 6 -14 3 -24 -3 -10 -1 -21 4 -24 5 -4 8 -15 6 -26 -2 -11 -1 -20 4 -20 7 0 8 -10 13 -80 1 -16 5 -30 9 -30 4 0 7 -10 7 -22 1 -40 7 -73 16 -87 7 -11 6 -12 -5 -6 -12 8 -12 6 0 -8 7 -9 10 -17 6 -17 -4 0 -1 -8 6 -17 12 -14 12 -16 0 -8 -11 6 -12 5 -5 -6 13 -21 16 -38 17 -96 1 -29 4 -53 7 -53 4 0 6 -36 5 -80 -1 -44 1 -80 5 -80 4 0 6 -40 5 -90 0 -49 2 -90 5 -90 3 0 7 -33 8 -72 1 -40 3 -108 5 -150 2 -43 1 -78 -2 -78 -4 0 -8 -37 -9 -82 -4 -193 -6 -248 -12 -248 -3 0 -5 -34 -5 -76 1 -41 -1 -77 -5 -79 -4 -2 -6 -29 -5 -59 1 -30 -2 -53 -6 -50 -4 2 -6 -5 -4 -17 3 -13 0 -28 -5 -34 -5 -6 -7 -20 -6 -30 2 -11 1 -24 -2 -30 -4 -5 -7 -23 -8 -40 -1 -16 -3 -31 -4 -32 -1 -2 -3 -6 -4 -10 -1 -5 -5 -14 -10 -22 -7 -11 -6 -12 5 -6 11 7 12 6 2 -7 -7 -8 -10 -18 -6 -21 3 -4 0 -14 -8 -24 -12 -15 -12 -16 1 -8 12 7 13 6 4 -6 -6 -8 -10 -22 -9 -31 2 -10 -1 -18 -5 -18 -5 0 -7 -9 -5 -20 2 -11 0 -22 -4 -25 -5 -2 -7 -16 -6 -30 2 -14 0 -25 -5 -25 -4 0 -6 -16 -4 -35 1 -19 -1 -35 -6 -35 -4 0 -7 -11 -5 -25 1 -14 -2 -25 -7 -25 -5 0 -6 -5 -3 -10 4 -6 1 -18 -7 -27 -11 -14 -11 -16 2 -8 12 6 12 5 3 -5 -6 -7 -9 -19 -6 -26 3 -8 0 -14 -6 -14 -6 0 -8 -7 -4 -17 5 -12 3 -14 -7 -8 -10 6 -12 4 -7 -8 3 -9 2 -19 -4 -23 -6 -3 -8 -12 -5 -20 3 -8 1 -14 -4 -14 -5 0 -6 -7 -3 -17 4 -10 2 -14 -4 -10 -7 4 -10 0 -8 -10 1 -10 -4 -29 -12 -42 -12 -18 -12 -22 -2 -16 8 5 5 -2 -6 -15 -12 -14 -14 -20 -5 -15 12 7 13 6 3 -7 -7 -8 -10 -18 -6 -21 3 -4 2 -7 -3 -7 -5 0 -11 -9 -12 -20 -4 -44 -6 -50 -15 -50 -6 0 -7 -3 -4 -7 4 -3 2 -12 -4 -20 -6 -7 -8 -13 -4 -13 4 0 2 -7 -5 -15 -6 -8 -9 -19 -5 -25 3 -5 1 -10 -5 -10 -6 0 -8 -5 -5 -10 4 -6 -1 -22 -10 -37 -12 -17 -13 -23 -4 -17 11 6 12 5 2 -8 -7 -8 -10 -18 -6 -21 3 -4 1 -7 -5 -7 -6 0 -9 -7 -6 -15 4 -8 1 -15 -6 -15 -6 0 -8 -4 -5 -10 3 -5 1 -10 -6 -10 -7 0 -9 -3 -6 -7 4 -3 1 -13 -6 -21 -9 -13 -9 -14 0 -8 9 5 11 2 7 -8 -3 -8 -12 -17 -21 -20 -8 -4 -13 -13 -9 -21 3 -8 0 -15 -6 -15 -6 0 -8 -3 -5 -7 4 -3 -1 -15 -10 -26 -10 -12 -12 -17 -4 -12 7 4 2 -9 -12 -30 -14 -21 -24 -42 -21 -47 4 -5 -2 -15 -12 -23 -11 -7 -16 -17 -12 -20 4 -4 0 -14 -8 -22 -8 -8 -12 -19 -9 -24 4 -5 1 -9 -5 -9 -6 0 -9 -4 -6 -9 3 -5 -4 -21 -16 -37 -13 -15 -17 -24 -9 -20 9 6 8 1 -3 -16 -9 -14 -13 -28 -9 -31 3 -4 0 -7 -7 -7 -7 0 -10 -3 -7 -7 4 -3 -1 -12 -11 -20 -10 -9 -11 -12 -2 -7 8 4 4 -5 -10 -21 -14 -16 -18 -24 -10 -20 9 5 7 -1 -5 -15 -11 -13 -14 -20 -7 -16 11 7 12 4 3 -13 -7 -11 -16 -21 -22 -21 -6 0 -7 -5 -3 -11 4 -7 -4 -20 -17 -31 -13 -11 -17 -16 -9 -12 8 4 4 -5 -10 -21 -14 -16 -18 -25 -10 -21 8 4 4 -2 -10 -14 -14 -12 -19 -19 -12 -15 11 6 11 3 1 -13 -7 -12 -17 -18 -22 -15 -5 3 -8 0 -5 -8 2 -7 -3 -20 -12 -29 -13 -12 -13 -13 0 -5 8 5 -1 -8 -20 -30 -19 -22 -26 -33 -15 -25 11 8 4 -3 -15 -25 -19 -22 -26 -33 -15 -25 19 15 19 15 0 -11 -11 -15 -24 -24 -29 -21 -5 3 -6 0 -2 -7 5 -7 -8 -31 -30 -59 -21 -26 -32 -42 -23 -37 11 7 11 6 -1 -5 -9 -9 -15 -21 -12 -28 2 -6 -3 -12 -12 -12 -9 0 -15 -3 -15 -7 1 -5 0 -11 -1 -15 -1 -5 -3 -14 -4 -20 -1 -7 -8 -12 -15 -10 -7 1 -10 -2 -7 -7 4 -5 2 -12 -4 -16 -6 -4 -8 -10 -5 -14 2 -5 -5 -17 -18 -27 -22 -19 -22 -19 -7 1 8 12 -1 3 -21 -19 -20 -22 -35 -46 -32 -52 2 -7 -1 -15 -8 -20 -8 -5 -10 -3 -4 6 5 9 4 11 -3 6 -7 -4 -12 -15 -12 -25 0 -20 -23 -45 -33 -35 -3 3 -8 -5 -12 -17 -10 -29 -30 -50 -40 -41 -4 4 -6 0 -3 -8 2 -8 -6 -23 -18 -33 -13 -10 -33 -35 -45 -57 -12 -22 -26 -37 -31 -34 -5 3 -8 2 -7 -3 4 -21 -2 -33 -17 -33 -8 0 -12 -5 -9 -10 3 -6 1 -10 -4 -10 -6 0 -11 -6 -11 -14 0 -8 -5 -18 -12 -22 -7 -5 -8 -3 -3 7 7 12 6 12 -7 1 -10 -8 -14 -20 -11 -29 4 -10 2 -14 -4 -10 -6 4 -13 -2 -16 -13 -3 -11 -17 -24 -31 -30 -15 -5 -31 -21 -36 -35 -5 -14 -12 -25 -15 -25 -4 0 -3 6 1 13 5 6 -9 -4 -29 -23 -40 -37 -51 -55 -15 -24 21 18 22 18 8 0 -8 -10 -25 -22 -37 -27 -13 -5 -28 -20 -33 -34 -5 -14 -12 -25 -15 -25 -4 0 -3 6 1 13 5 6 -11 -6 -34 -28 -42 -39 -52 -53 -30 -39 7 4 8 3 4 -4 -4 -7 -14 -12 -22 -12 -8 0 -19 -11 -24 -25 -5 -14 -12 -25 -15 -25 -4 0 -3 6 1 13 5 6 -11 -6 -34 -28 -23 -21 -42 -44 -42 -51 0 -6 -8 -18 -17 -25 -17 -13 -17 -12 -3 6 9 13 9 16 1 8 -7 -6 -19 -22 -25 -35 -6 -12 -26 -30 -44 -38 -18 -9 -30 -19 -26 -23 4 -4 2 -7 -4 -7 -6 0 -21 -10 -33 -23 -12 -12 -18 -16 -14 -8 5 9 4 12 -3 7 -7 -4 -12 -14 -12 -22 0 -8 -5 -12 -10 -9 -12 7 -42 -20 -32 -29 3 -4 0 -5 -8 -2 -9 4 -35 -12 -64 -39 -26 -25 -52 -45 -57 -45 -4 0 -11 -5 -15 -12 -5 -7 -3 -8 6 -3 8 5 11 4 6 -3 -4 -6 -13 -9 -21 -5 -10 3 -15 -1 -15 -12 0 -9 -4 -13 -10 -10 -5 3 -10 2 -10 -4 0 -5 -9 -13 -20 -16 -11 -4 -18 -11 -15 -16 4 -5 -3 -9 -15 -9 -12 0 -18 -4 -15 -10 3 -5 2 -10 -4 -10 -5 0 -25 -15 -42 -32 -18 -18 -26 -24 -18 -12 8 11 2 7 -13 -9 -14 -16 -31 -26 -37 -23 -6 4 -11 0 -11 -9 0 -10 -5 -13 -11 -9 -7 4 -20 -4 -31 -17 -11 -13 -16 -17 -12 -9 7 13 6 13 -12 0 -10 -8 -25 -22 -32 -30 -10 -10 -11 -11 -6 -1 4 7 -8 3 -27 -10 -19 -13 -36 -27 -37 -32 -2 -4 -8 -5 -13 -1 -5 3 -9 0 -9 -7 0 -7 -3 -10 -6 -6 -4 3 -14 -2 -23 -11 -10 -11 -12 -12 -6 -2 5 8 -6 2 -24 -15 -19 -16 -31 -23 -27 -15 4 8 -2 4 -14 -10 -12 -14 -18 -19 -14 -11 8 16 -7 9 -38 -18 -10 -9 -21 -15 -24 -13 -2 1 -16 -10 -31 -25 -14 -16 -19 -19 -12 -9 13 18 13 18 -8 6 -12 -8 -19 -18 -16 -24 4 -5 -1 -7 -10 -3 -10 4 -22 -1 -30 -13 -8 -11 -17 -17 -20 -13 -4 3 -19 -4 -34 -18 -14 -13 -23 -17 -19 -9 7 13 6 13 -6 0 -7 -8 -19 -15 -25 -16 -29 -2 -34 -4 -29 -13 4 -5 -4 -7 -16 -3 -13 3 -19 1 -15 -5 4 -6 -5 -15 -19 -22 -14 -6 -23 -7 -20 -2 3 5 -5 4 -18 -2 -13 -7 -22 -16 -19 -20 3 -5 -4 -6 -16 -2 -12 4 -21 2 -21 -4 0 -6 -9 -11 -19 -11 -10 0 -21 -7 -25 -15 -3 -8 -12 -12 -21 -9 -8 4 -15 1 -15 -7 0 -7 -3 -9 -7 -6 -3 4 -17 0 -30 -8 -13 -9 -23 -12 -23 -8 0 4 -7 -2 -16 -13 -8 -10 -12 -12 -8 -4 5 10 -1 8 -16 -5 -13 -11 -20 -14 -16 -8 5 9 2 11 -8 7 -8 -3 -17 -12 -20 -20 -3 -7 -12 -11 -21 -8 -8 3 -15 1 -15 -5 0 -6 -7 -8 -17 -4 -12 5 -14 3 -8 -7 6 -10 4 -12 -8 -7 -10 4 -17 1 -17 -5 0 -6 -3 -8 -7 -5 -3 4 -12 -1 -20 -11 -9 -10 -11 -11 -7 -2 7 12 5 13 -8 3 -8 -7 -18 -10 -21 -6 -4 3 -7 1 -7 -5 0 -6 -9 -9 -20 -7 -11 2 -20 0 -20 -5 0 -5 -7 -6 -17 -3 -11 5 -14 3 -8 -6 5 -10 2 -11 -14 -6 -13 4 -21 2 -21 -5 0 -7 -7 -10 -15 -6 -8 3 -15 1 -15 -4 0 -5 -7 -7 -15 -4 -8 4 -15 1 -15 -6 0 -7 -8 -9 -20 -5 -12 4 -20 2 -20 -5 0 -6 -4 -9 -9 -5 -5 3 -12 1 -16 -4 -3 -6 -12 -8 -19 -5 -8 3 -17 0 -21 -5 -3 -6 -11 -9 -16 -6 -5 4 -9 2 -9 -4 0 -6 -7 -7 -17 -4 -10 4 -14 2 -10 -4 4 -6 -3 -9 -18 -7 -14 1 -25 -2 -25 -8 0 -6 -7 -8 -15 -4 -8 3 -15 1 -15 -4 0 -5 -6 -7 -14 -4 -8 3 -17 0 -21 -5 -3 -6 -11 -9 -16 -6 -5 4 -9 2 -9 -4 0 -6 -6 -8 -14 -5 -8 3 -17 0 -21 -5 -3 -6 -11 -9 -16 -5 -5 3 -16 0 -24 -6 -8 -7 -15 -9 -15 -5 0 5 -10 0 -22 -11 -12 -10 -18 -13 -13 -5 6 10 4 12 -6 5 -8 -5 -22 -7 -31 -6 -10 2 -18 -1 -18 -6 0 -6 -14 -8 -31 -5 -19 3 -29 1 -25 -5 3 -6 -2 -9 -11 -7 -10 1 -24 -3 -32 -9 -12 -9 -13 -8 -6 4 7 12 6 13 -6 4 -8 -5 -24 -9 -36 -8 -13 0 -23 -2 -23 -7 0 -4 -11 -6 -25 -3 -14 2 -25 0 -25 -5 0 -5 -14 -7 -31 -4 -17 2 -29 1 -26 -4 3 -4 -7 -9 -21 -10 -15 -1 -40 -4 -57 -8 -16 -3 -42 -6 -57 -7 -16 -1 -28 -5 -28 -9 0 -4 -12 -6 -26 -3 -14 3 -23 1 -20 -5 3 -5 -3 -7 -14 -4 -11 3 -28 -1 -37 -8 -14 -12 -15 -12 -9 -1 7 11 4 12 -10 4 -11 -6 -32 -8 -48 -5 -17 4 -27 2 -23 -3 3 -6 -31 -9 -84 -8 -49 1 -89 -1 -89 -5 0 -6 -50 -8 -247 -12 -45 -1 -81 -5 -79 -8 3 -5 -913 -7 -934 -2 -7 1 -5 1775 2 1787 4 5 170 9 422 8 229 0 418 2 420 5 2 3 34 6 70 5 36 0 66 2 66 5 0 3 29 5 65 5 36 -1 65 2 65 5 0 3 30 7 68 8 37 1 90 3 117 3 28 1 56 7 64 13 12 10 13 9 7 -1 -7 -11 -4 -12 11 -4 11 6 33 13 49 16 16 2 29 5 29 6 0 1 15 3 34 6 19 2 39 8 45 12 6 5 21 7 34 6 12 0 22 3 22 9 0 6 3 7 7 4 3 -4 13 -1 21 6 13 10 14 9 8 -1 -7 -11 -4 -12 12 -3 12 6 25 11 29 10 4 -1 10 0 13 1 3 1 12 3 20 5 8 2 26 7 40 10 14 4 33 7 43 7 9 -1 17 3 17 8 0 5 12 7 26 4 18 -3 23 -1 18 7 -4 8 -3 9 5 5 6 -4 19 -2 28 6 14 11 16 11 9 -1 -6 -8 0 -7 18 4 14 10 26 14 26 9 0 -4 6 0 13 11 8 10 19 15 26 11 7 -5 19 0 27 10 9 11 12 12 8 4 -7 -13 -5 -13 9 -1 9 7 17 10 17 7 0 -4 14 3 32 15 17 13 28 16 23 8 -8 -12 -6 -12 8 0 9 7 17 10 17 6 0 -5 9 0 20 10 11 10 20 15 20 11 0 -5 16 1 36 13 19 12 32 16 28 9 -4 -7 8 -1 26 12 18 13 30 19 26 12 -5 -8 -2 -10 8 -6 9 3 13 10 10 15 -3 5 2 6 11 3 9 -4 23 1 33 9 9 9 22 16 27 16 25 2 45 13 40 22 -3 5 0 6 7 4 8 -3 24 4 36 15 12 11 22 17 22 13 0 -4 7 2 16 13 8 10 13 13 9 6 -10 -20 2 -14 42 21 20 17 33 26 29 19 -7 -11 -4 -12 13 -3 11 7 21 14 21 17 0 3 -5 2 -12 -2 -7 -4 -8 -3 -4 5 4 6 11 9 16 6 13 -8 71 30 62 40 -4 4 1 5 10 2 11 -4 21 0 27 11 6 9 11 13 11 8 0 -6 7 -1 16 10 8 10 13 13 9 7 -4 -8 6 -6 24 4 16 10 27 21 24 25 -2 5 -1 8 4 7 20 -3 34 3 56 25 14 14 28 22 31 19 3 -4 6 1 6 11 0 9 5 14 10 11 6 -3 10 1 10 9 0 10 6 13 17 9 11 -4 14 -3 9 5 -4 7 -1 12 6 12 8 0 28 13 46 29 17 17 32 27 32 23 1 -4 7 4 15 18 8 14 14 21 15 16 0 -6 7 -1 16 10 8 10 12 12 8 4 -4 -9 2 -7 13 5 11 11 19 23 16 27 -2 4 3 5 11 2 11 -4 19 2 25 17 5 13 10 20 10 14 1 -5 8 1 17 13 8 12 22 22 30 22 9 0 12 5 8 12 -4 6 -3 8 3 5 14 -9 107 79 98 94 -5 7 -4 10 2 6 6 -4 21 6 34 21 l24 27 -25 -20 -25 -20 19 23 c11 12 25 22 33 22 8 0 11 5 8 10 -3 5 0 10 8 10 8 0 21 8 28 17 12 14 12 16 0 8 -10 -5 -12 -4 -7 3 4 7 14 12 22 12 8 0 12 4 9 10 -3 5 -1 10 5 10 6 0 8 4 5 10 -3 6 1 10 9 10 8 0 18 9 21 20 4 11 9 19 13 17 10 -5 42 30 35 37 -4 3 1 6 9 6 14 0 29 21 32 42 1 4 8 13 16 20 12 11 12 10 0 -7 -14 -18 -14 -19 3 -6 9 7 17 20 17 28 0 8 5 11 12 7 8 -5 9 -2 5 9 -4 11 -1 17 9 17 8 0 12 5 9 10 -3 5 -1 10 6 10 7 0 9 3 6 7 -4 3 2 13 14 21 11 8 18 20 15 28 -3 8 1 14 11 14 9 0 13 3 10 7 -4 3 1 12 11 20 9 8 11 11 4 8 -23 -12 4 31 31 50 12 8 21 18 20 20 -7 13 -2 25 10 23 7 -2 11 5 9 16 -2 10 0 16 5 13 4 -3 17 7 28 22 12 16 14 22 4 16 -8 -5 -6 -2 4 8 11 9 16 17 13 17 -4 0 2 10 13 22 11 11 18 25 15 30 -3 4 2 8 11 8 9 0 13 5 10 10 -3 6 -1 10 6 10 7 0 9 3 6 7 -4 3 1 15 10 26 13 15 14 18 3 12 -8 -4 -4 4 10 20 14 16 18 25 10 21 -8 -4 -7 -1 4 8 10 8 15 19 11 25 -3 6 -2 11 4 11 6 0 15 10 22 21 9 17 8 20 -3 14 -7 -3 -6 -1 3 7 9 7 14 19 12 25 -3 7 2 16 10 19 9 3 14 14 12 25 -2 11 0 17 4 14 5 -3 12 2 15 11 3 8 2 12 -4 9 -6 -3 -7 1 -4 9 3 9 9 14 13 12 3 -2 11 7 18 20 8 18 8 23 0 18 -7 -3 -3 2 7 10 11 9 16 16 11 16 -4 0 0 10 11 22 13 14 14 19 4 14 -8 -4 -6 0 4 8 11 9 16 16 11 16 -4 0 0 10 11 22 12 13 13 18 4 13 -12 -7 -13 -6 -3 7 7 8 10 18 6 21 -3 4 -1 7 6 7 7 0 10 4 6 9 -3 5 -1 12 5 16 6 4 8 11 5 16 -4 5 -1 9 5 9 7 0 9 8 5 21 -5 16 -4 19 6 14 9 -6 11 -2 7 13 -4 13 -1 22 5 22 6 0 7 3 4 7 -4 3 -1 13 6 21 10 13 9 14 -3 7 -9 -5 -7 1 5 15 11 13 14 20 6 15 -11 -6 -11 -3 2 14 8 13 13 30 10 37 -3 8 0 14 7 14 7 0 9 8 5 21 -5 16 -4 19 6 14 9 -6 11 -3 6 8 -4 10 -2 17 4 17 6 0 9 7 6 15 -4 8 -2 17 4 21 5 3 7 14 4 25 -4 11 -2 19 5 19 7 0 9 7 6 16 -4 10 -2 13 6 8 8 -5 9 -2 5 9 -4 10 -1 17 5 17 6 0 8 3 5 7 -4 3 -1 13 6 21 10 13 9 14 -3 7 -12 -7 -13 -6 -4 6 6 8 10 24 9 37 -1 12 1 22 4 22 3 0 7 12 8 28 7 76 9 88 17 101 7 10 6 12 -4 6 -10 -6 -11 -4 -4 6 5 8 9 23 9 34 0 11 4 25 7 31 4 6 5 23 2 38 -2 15 -1 25 4 22 5 -3 8 7 7 22 -1 15 3 33 9 41 9 12 8 13 -4 6 -12 -7 -13 -6 -3 6 7 9 11 25 8 37 -2 12 -1 24 3 26 12 7 4 701 -8 701 -1 0 -4 18 -6 40 -7 69 -9 80 -15 90 -3 6 -5 25 -4 43 1 17 -1 32 -5 32 -5 0 -9 35 -12 108 0 17 -5 32 -10 32 -6 0 -7 7 -4 16 4 9 1 24 -6 32 -11 13 -11 14 0 8 12 -7 12 -4 1 15 -7 13 -12 30 -10 38 1 7 -2 10 -8 6 -6 -3 -9 0 -5 8 3 8 1 18 -5 21 -6 4 -8 13 -5 20 3 8 0 17 -5 21 -6 3 -9 11 -6 16 4 5 2 9 -3 9 -6 0 -8 10 -4 22 3 13 1 19 -6 15 -6 -4 -9 0 -7 10 1 10 -2 24 -8 31 -5 6 -6 12 -2 12 4 0 0 12 -10 26 -11 18 -13 24 -4 19 8 -5 5 2 -6 15 -12 14 -14 20 -5 15 12 -6 12 -5 3 5 -6 7 -9 19 -6 26 3 8 0 14 -6 14 -6 0 -8 7 -4 17 5 12 3 14 -7 8 -10 -6 -12 -4 -6 10 4 11 0 26 -11 38 -10 12 -12 17 -4 12 10 -6 12 -4 5 6 -4 8 -9 20 -10 27 -2 8 -10 22 -20 33 -9 10 -14 22 -11 26 4 3 -1 12 -11 20 -10 9 -11 12 -2 7 10 -5 9 0 -4 14 -11 12 -15 22 -11 22 5 0 0 7 -11 16 -10 8 -12 12 -5 8 9 -4 4 7 -9 26 -13 18 -18 30 -11 26 10 -7 11 -4 2 13 -7 11 -16 21 -22 21 -6 0 -7 5 -4 11 4 6 -1 16 -11 24 -11 7 -16 17 -12 21 4 4 0 13 -10 21 -9 8 -11 12 -5 8 9 -4 11 -1 7 9 -3 9 -11 16 -17 16 -6 0 -7 3 -4 7 4 3 -1 12 -11 20 -9 8 -11 12 -4 8 8 -4 7 5 -4 29 -10 19 -22 32 -28 29 -6 -3 -8 -3 -4 2 4 4 2 15 -5 23 -10 13 -9 14 1 8 11 -7 11 -4 0 13 -7 12 -15 21 -19 21 -3 0 -16 15 -29 33 -13 17 -17 28 -9 22 8 -5 3 1 -11 15 -14 14 -19 21 -11 15 12 -9 12 -7 1 12 -8 12 -17 20 -21 17 -4 -2 -10 8 -13 21 -4 14 -10 23 -15 20 -5 -2 -12 2 -15 11 -4 10 -2 13 7 9 6 -4 3 1 -7 9 -11 9 -16 16 -11 16 5 0 0 7 -11 15 -10 8 -15 15 -10 15 4 0 -2 9 -15 21 -13 11 -18 17 -10 13 9 -5 12 -3 7 4 -4 7 -14 12 -21 12 -8 0 -12 6 -9 14 3 8 -5 21 -18 30 -12 9 -18 16 -13 16 6 1 1 8 -11 18 -20 17 -24 24 -24 43 0 5 -4 7 -10 4 -9 -5 -12 2 -9 21 2 11 -54 64 -67 64 -7 0 -16 5 -20 12 -5 7 -2 8 7 3 8 -5 3 4 -10 18 -27 30 -41 37 -20 10 13 -16 12 -17 -4 -4 -10 8 -16 20 -13 27 3 7 -4 16 -15 19 -10 4 -17 11 -14 16 4 5 -1 9 -9 9 -8 0 -18 5 -22 12 -5 7 -3 8 7 3 12 -8 12 -6 0 8 -7 9 -19 17 -27 17 -7 0 -16 5 -20 12 -5 7 -3 8 7 3 8 -5 5 1 -5 13 -21 24 -32 29 -20 10 4 -7 3 -8 -4 -4 -6 4 -9 13 -6 20 3 8 0 17 -7 22 -8 5 -10 3 -4 -6 5 -9 4 -11 -3 -6 -7 4 -12 12 -12 17 0 13 -61 79 -72 79 -6 0 -25 16 -44 35 -19 20 -38 33 -43 31 -5 -3 -15 2 -22 12 -13 16 -12 16 6 2 20 -14 20 -14 2 7 -11 12 -25 19 -33 16 -8 -3 -14 1 -14 10 0 8 -8 21 -17 28 -14 12 -16 12 -9 -1 4 -9 2 -8 -7 2 -8 10 -17 15 -20 11 -4 -3 -7 1 -7 10 0 9 -5 19 -12 23 -7 5 -8 3 -3 -7 5 -8 -6 1 -23 19 -17 19 -36 31 -41 28 -5 -4 -13 -1 -17 5 -5 8 -2 10 7 5 8 -4 3 2 -10 13 -12 12 -27 18 -32 15 -5 -3 -9 1 -9 9 0 8 -8 21 -17 28 -14 12 -16 12 -9 -1 4 -9 2 -8 -7 2 -8 10 -17 15 -20 11 -4 -3 -7 2 -7 11 0 12 -5 16 -14 13 -8 -3 -17 1 -20 10 -4 8 -13 13 -21 9 -8 -3 -17 0 -21 6 -5 7 -2 8 6 3 9 -5 11 -4 6 3 -4 7 -16 12 -27 12 -10 0 -19 4 -19 10 0 5 -6 7 -14 4 -8 -3 -17 0 -22 7 -5 8 -3 10 7 5 8 -4 5 0 -6 8 -11 9 -25 14 -33 11 -7 -2 -10 -1 -7 4 4 8 -14 18 -45 25 -2 1 -14 11 -27 24 -20 20 -41 27 -66 23 -5 -1 -6 2 -3 7 6 11 -51 45 -63 37 -5 -3 -13 0 -17 6 -4 8 -3 9 4 5 7 -4 12 -5 12 -2 0 3 -14 13 -31 22 -23 11 -29 12 -24 2 3 -7 0 -5 -8 4 -8 10 -17 15 -20 11 -4 -3 -7 -1 -7 5 0 6 -9 9 -20 7 -11 -2 -18 0 -15 6 5 8 -9 13 -18 7 -2 -2 -12 4 -22 12 -17 13 -18 13 -10 0 7 -12 6 -13 -7 -3 -8 7 -19 9 -23 5 -5 -4 -5 -1 -1 6 6 11 -11 17 -36 13 -5 0 -8 3 -8 8 0 5 -7 12 -16 15 -10 4 -13 2 -8 -6 4 -7 -7 -2 -25 11 -17 13 -38 20 -46 18 -7 -3 -16 1 -19 10 -4 8 -13 13 -21 9 -8 -3 -17 -1 -21 5 -3 6 -13 8 -21 5 -8 -3 -12 -2 -9 3 3 5 -1 12 -10 15 -10 4 -13 2 -8 -7 4 -6 -2 -4 -13 6 -11 9 -26 17 -34 17 -8 0 -21 6 -28 13 -11 10 -12 9 -6 -3 7 -12 5 -12 -11 1 -10 9 -27 15 -36 14 -10 -2 -18 1 -18 6 0 5 -13 7 -30 5 -17 -2 -27 1 -24 6 4 6 -2 7 -15 3 -13 -4 -21 -2 -21 5 0 6 -11 8 -25 6 -15 -3 -23 -1 -19 5 3 6 -5 8 -20 5 -14 -3 -28 0 -32 5 -3 6 -12 8 -19 5 -7 -2 -16 -2 -19 2 -8 8 -35 14 -63 14 -13 0 -23 4 -23 8 0 5 -9 7 -20 5 -11 -2 -20 0 -20 5 0 4 -11 7 -25 6 -13 -2 -22 1 -19 6 3 5 -6 7 -20 4 -14 -3 -28 -1 -31 4 -3 5 -23 8 -43 6 -20 -2 -43 2 -51 8 -12 9 -13 8 -6 -4 7 -12 6 -13 -6 -3 -8 6 -38 10 -66 9 -29 -2 -53 1 -53 4 0 4 -29 7 -65 6 -36 0 -65 2 -65 5 0 3 -32 5 -71 4 -39 0 -72 2 -74 5 -2 4 -591 7 -1308 7 l-1304 0 0 -5271 0 -5272 1346 2 c1460 3 1511 3 1511 13 0 4 41 6 90 5 50 -2 88 0 86 4 -2 4 37 8 87 9 172 3 245 7 242 13 -2 3 11 5 28 4 17 -1 36 1 42 4 10 6 48 12 93 15 12 0 22 4 22 7 0 3 10 7 23 8 12 0 39 2 60 4 20 1 37 5 37 9 0 4 14 6 30 4 17 -2 30 0 30 5 0 4 14 6 31 3 18 -2 29 -1 25 5 -3 5 12 8 35 6 22 -2 37 0 35 5 -3 4 10 7 29 6 19 -1 32 2 29 7 -3 5 8 6 25 3 16 -3 32 -1 35 4 3 4 19 7 36 5 16 -2 30 0 30 5 0 5 14 7 31 5 18 -2 28 0 24 6 -3 6 1 7 9 4 9 -3 16 -1 16 4 0 6 12 9 26 6 18 -3 23 -1 18 7 -4 8 -3 9 5 5 6 -4 19 -2 28 6 14 11 16 11 8 -2 -7 -12 -6 -13 7 -3 8 7 18 10 21 6 4 -3 7 -1 7 5 0 6 9 9 20 7 11 -2 20 0 20 4 0 7 15 11 53 12 9 0 17 5 17 11 0 6 3 8 7 5 3 -4 13 -1 21 6 13 10 14 9 7 -3 -8 -13 -7 -13 8 -1 9 7 17 10 17 6 0 -4 7 -2 15 5 8 7 15 9 15 5 0 -4 12 0 26 10 17 11 24 12 18 4 -5 -9 3 -7 20 5 18 11 26 13 21 5 -6 -11 -5 -11 5 -2 7 6 19 9 26 6 8 -3 14 0 14 6 0 6 7 8 17 4 11 -4 14 -3 9 6 -5 8 0 10 18 7 14 -3 26 -1 26 4 0 5 7 6 17 3 10 -4 14 -2 9 5 -4 7 2 9 19 6 14 -2 25 0 25 6 0 7 8 9 21 5 12 -4 19 -3 16 2 -5 8 10 12 56 13 10 1 15 6 11 12 -5 8 -1 9 11 5 11 -5 23 -1 32 10 8 11 11 12 7 3 -5 -10 1 -8 16 5 13 11 20 14 16 8 -5 -9 -2 -11 8 -7 9 3 13 11 10 16 -4 6 1 8 14 4 12 -4 22 -1 25 8 4 9 14 12 28 9 17 -5 20 -3 14 7 -6 10 -4 12 8 7 10 -3 17 -2 17 4 0 6 5 7 11 3 6 -3 14 -3 18 2 11 16 52 35 61 29 6 -4 10 -1 10 5 0 6 4 9 10 5 8 -5 45 10 60 25 6 6 30 12 48 13 6 0 12 4 12 9 0 5 5 6 10 3 6 -3 10 -1 10 5 0 6 4 9 9 5 5 -3 12 -1 16 5 4 6 11 8 16 5 5 -4 9 -1 9 6 0 7 3 9 7 6 3 -4 15 1 26 10 15 13 18 14 12 3 -5 -9 1 -7 15 5 14 12 20 14 15 5 -5 -9 0 -8 13 4 12 11 22 15 22 11 0 -4 10 0 22 11 13 12 18 13 13 4 -5 -9 1 -7 15 5 13 11 20 14 16 8 -5 -9 -2 -11 8 -7 9 3 14 10 11 15 -3 4 4 6 15 4 13 -2 20 1 20 11 0 8 5 12 11 9 6 -4 22 4 36 16 15 13 23 18 19 12 -5 -9 -2 -11 8 -7 9 3 13 11 10 16 -4 6 -1 9 7 6 8 -3 20 2 27 11 11 13 12 13 6 1 -4 -8 5 -4 21 10 16 14 25 18 21 10 -4 -8 0 -6 8 4 9 11 16 16 16 11 0 -5 7 0 16 11 8 10 12 12 8 4 -6 -11 -2 -10 13 3 11 9 23 14 26 10 4 -3 7 -1 7 5 0 7 7 12 15 12 8 0 15 4 15 10 0 5 7 7 15 4 10 -4 15 0 15 11 0 9 4 14 9 11 5 -3 21 4 37 16 16 13 25 16 20 8 -5 -11 -4 -11 6 1 7 9 19 14 25 12 7 -3 16 2 19 11 3 8 12 12 20 9 7 -3 17 2 20 11 3 9 10 14 14 11 4 -3 11 2 14 11 3 8 10 13 15 10 5 -4 16 0 24 8 8 8 17 12 21 9 3 -4 6 -1 6 6 0 7 5 9 11 6 6 -4 16 0 22 10 7 9 19 17 27 19 29 6 59 21 60 31 1 6 7 9 14 7 7 -1 20 6 27 15 13 17 13 17 -6 3 -19 -14 -19 -14 -6 2 7 10 17 16 21 13 5 -3 21 6 36 20 14 13 30 22 35 19 5 -3 9 2 9 11 0 9 5 13 10 10 6 -3 10 -1 10 5 0 6 4 9 9 6 5 -3 12 1 15 10 4 9 9 14 13 11 3 -4 12 1 20 11 10 11 12 12 8 2 -4 -10 -2 -9 8 3 8 9 19 17 25 17 6 0 16 8 21 18 6 9 11 13 11 8 0 -4 8 0 17 11 10 10 14 12 9 3 -5 -8 5 0 23 19 17 18 31 31 31 27 0 -4 12 2 26 13 15 12 33 21 41 21 8 0 12 3 10 8 -3 4 11 17 30 29 19 13 31 17 28 10 -4 -6 2 -3 12 8 10 12 27 27 37 35 18 13 19 13 12 0 -5 -8 4 -1 19 15 14 17 23 24 19 16 -5 -9 -3 -12 4 -7 7 4 12 14 12 23 0 9 6 13 15 9 9 -3 15 0 15 8 0 16 44 58 53 50 4 -4 9 1 13 10 3 9 10 13 15 10 5 -3 9 2 9 10 0 8 5 18 12 22 7 5 9 2 4 -7 -4 -8 2 -2 14 13 12 16 28 28 35 28 8 0 17 5 21 12 5 7 3 8 -6 3 -9 -6 -11 -4 -6 4 5 7 14 10 21 7 8 -3 17 4 20 15 4 11 9 18 12 16 2 -3 18 9 35 26 16 18 26 26 22 18 -5 -9 -3 -12 4 -7 7 4 12 13 12 21 0 8 5 17 12 21 7 5 9 2 4 -7 -4 -8 1 -4 12 9 11 12 25 22 32 22 6 0 9 3 7 8 -3 4 1 13 9 20 8 7 14 10 14 7 0 -3 12 7 28 23 15 15 20 19 12 7 -8 -12 5 0 30 25 25 25 41 39 35 30 -5 -9 1 -5 14 10 14 14 28 24 33 23 4 -2 7 3 5 10 -1 6 3 11 10 10 6 -2 15 6 18 17 4 11 11 18 16 15 5 -3 6 0 3 8 -3 8 0 18 7 23 8 5 10 3 4 -6 -5 -9 -4 -11 3 -6 7 4 12 11 12 17 0 14 132 144 142 141 5 -1 7 2 3 8 -3 5 -1 10 4 10 6 0 11 6 11 14 0 8 5 18 12 22 7 5 8 3 3 -6 -5 -9 -4 -11 3 -6 7 4 12 11 12 17 0 12 37 49 49 49 6 0 13 5 17 12 5 7 3 8 -6 3 -9 -5 -11 -4 -6 3 4 7 13 12 21 12 8 0 17 5 21 12 5 7 3 8 -7 3 -8 -5 -1 5 16 23 32 35 46 43 24 15 -13 -16 -12 -17 3 -4 10 7 15 17 13 22 -7 11 55 80 66 73 5 -3 9 2 9 11 0 9 4 14 9 11 4 -3 13 6 20 20 7 15 16 22 23 18 7 -5 9 -2 5 9 -3 9 1 21 11 29 13 11 14 11 7 -1 -6 -10 -4 -12 4 -7 7 4 10 13 8 19 -2 6 13 27 32 46 20 19 27 28 16 20 -15 -11 -14 -7 5 17 14 17 29 29 34 26 5 -3 6 0 2 6 -4 7 9 27 31 49 21 20 27 28 13 17 l-25 -19 25 30 c36 44 44 52 36 38 -4 -7 -5 -13 -2 -13 3 0 13 16 22 35 9 19 20 32 25 29 5 -3 6 1 3 9 -3 8 0 18 7 23 8 5 10 3 4 -6 -5 -9 -4 -11 3 -6 7 4 12 13 12 21 0 7 11 23 25 36 13 13 25 30 25 37 0 6 5 12 10 12 6 0 10 6 10 14 0 8 5 18 12 22 7 5 8 3 3 -6 -5 -8 -4 -11 3 -6 6 4 9 13 6 20 -5 13 25 45 34 36 3 -3 6 3 8 14 1 10 8 24 15 30 9 8 10 7 4 -4 -5 -9 -4 -12 1 -7 5 5 10 13 10 18 1 5 2 14 3 20 0 5 6 7 13 3 6 -4 8 -3 4 4 -3 6 -2 13 4 17 6 4 8 11 5 16 -4 5 1 9 10 9 11 0 15 5 11 15 -3 8 -1 15 5 15 6 0 7 4 4 10 -3 5 -2 10 3 10 6 0 15 14 21 30 5 17 13 30 16 30 3 0 3 -5 -1 -12 -4 -7 -3 -8 4 -4 6 4 8 14 5 23 -4 11 -3 14 6 9 8 -6 11 -2 9 10 -2 11 2 18 9 17 7 -2 10 3 7 10 -2 7 3 21 12 32 8 11 13 14 9 8 -11 -22 4 -14 16 8 8 16 8 20 -1 14 -9 -6 -9 -2 0 14 6 12 15 19 20 16 6 -4 7 1 3 11 -4 12 -3 15 5 10 8 -4 10 -2 6 8 -3 9 3 19 16 26 11 6 19 19 18 28 -2 10 3 16 10 14 8 -1 11 2 7 8 -4 6 1 18 11 26 11 9 13 12 6 9 -11 -6 -11 -3 -1 13 7 12 16 19 20 16 8 -4 21 22 24 49 1 10 8 23 15 30 10 10 11 9 5 -3 -5 -9 -4 -12 1 -7 5 5 9 12 9 15 2 22 18 51 26 47 5 -3 6 2 2 11 -4 12 -3 15 6 10 6 -4 11 -4 10 1 -4 22 2 43 11 38 6 -4 7 1 3 11 -4 12 -3 15 5 10 8 -5 10 -1 5 10 -4 12 -3 15 6 10 6 -4 11 -4 10 1 -4 22 2 43 11 38 6 -4 7 1 3 11 -5 13 -3 15 7 9 9 -5 11 -4 6 4 -11 17 3 53 17 45 7 -4 9 -4 5 1 -4 4 -2 17 4 29 7 11 13 23 13 26 0 3 6 15 13 27 7 13 9 23 5 23 -4 0 0 5 9 11 10 5 15 16 12 24 -4 8 -1 15 7 15 7 0 9 3 6 7 -4 3 1 12 11 20 9 8 11 12 5 8 -9 -4 -11 -1 -7 9 3 9 10 13 15 10 5 -3 6 2 3 10 -4 10 -1 16 7 16 7 0 9 3 6 6 -3 4 -1 16 5 28 7 11 11 24 10 29 -1 4 3 7 8 7 5 0 9 3 9 8 -3 20 2 32 12 26 7 -4 10 -1 7 7 -3 8 2 23 11 33 9 11 10 16 4 12 -9 -5 -11 -2 -7 8 3 9 10 13 15 10 5 -3 6 3 2 12 -4 12 -3 15 5 10 8 -5 10 -2 6 8 -3 9 -1 16 6 16 6 0 8 5 5 10 -3 6 -1 10 5 10 6 0 8 5 5 10 -3 6 -2 10 4 10 6 0 7 7 4 17 -5 12 -3 14 7 8 10 -6 12 -4 7 8 -3 10 -2 17 3 17 5 0 6 7 3 17 -5 12 -3 14 7 8 9 -5 11 -4 6 3 -4 7 -4 18 1 24 7 13 9 19 15 48 2 8 8 22 13 30 5 8 8 23 6 34 -1 10 2 16 8 12 6 -4 8 2 6 14 -2 11 0 20 4 20 4 0 8 7 9 15 1 8 3 22 4 30 1 8 5 15 10 15 5 0 7 4 3 9 -3 5 -1 12 4 16 6 3 8 12 4 20 -3 8 1 15 8 15 7 0 10 3 7 6 -4 3 0 20 7 39 8 18 11 35 8 39 -4 3 -1 6 5 6 6 0 9 7 5 17 -5 12 -3 14 7 8 9 -5 11 -4 6 3 -4 7 -4 18 1 24 4 7 9 22 10 33 2 10 7 22 12 25 4 3 7 13 5 22 -1 10 3 18 9 18 5 0 8 3 5 6 -4 3 0 20 7 39 8 18 11 35 8 39 -4 3 -1 6 5 6 7 0 11 3 11 8 -1 4 0 9 1 12 6 17 12 48 12 68 0 12 4 22 9 22 4 0 6 7 3 15 -4 8 -1 15 4 15 6 0 9 9 7 21 -2 11 1 32 7 47 6 15 12 41 14 57 3 31 11 68 14 73 2 1 3 6 4 11 0 5 4 12 8 16 4 4 4 13 1 21 -3 8 1 22 8 31 12 14 12 16 -1 8 -12 -6 -12 -5 -3 5 6 7 9 19 6 28 -4 8 -2 13 3 9 5 -3 10 6 11 21 1 30 10 79 20 102 8 20 13 49 14 83 0 15 4 27 9 27 4 0 6 10 2 22 -3 15 -2 19 7 14 8 -6 10 -1 5 18 -3 14 -2 26 3 26 5 0 8 23 6 50 -1 28 1 49 5 46 5 -3 7 17 6 45 -1 27 2 49 5 49 4 0 7 19 8 43 3 84 8 147 13 147 5 0 10 61 10 138 0 23 4 40 9 38 5 -3 7 17 6 44 -2 27 0 48 4 46 3 -2 5 20 5 50 -1 30 1 52 5 50 9 -6 6 778 -4 793 -6 10 -4 12 6 6 12 -7 12 -6 1 7 -7 9 -10 29 -7 47 3 17 1 31 -4 31 -5 0 -8 22 -7 49 1 28 -1 48 -5 45 -4 -2 -6 16 -4 41 1 25 -1 45 -5 45 -4 0 -6 17 -6 38 1 20 -3 43 -9 51 -8 12 -7 13 5 6 12 -7 13 -6 3 6 -7 9 -11 33 -8 58 3 25 0 39 -5 36 -6 -4 -9 13 -7 44 2 28 0 48 -4 45 -5 -2 -7 18 -5 46 1 27 -1 50 -6 50 -4 0 -6 18 -4 40 2 22 0 40 -4 40 -4 0 -7 14 -6 31 1 16 -1 32 -6 35 -5 3 -6 10 -3 15 4 5 2 9 -3 9 -5 0 -8 12 -8 28 1 15 -3 33 -7 39 -5 7 -7 20 -3 28 4 11 2 14 -6 9 -8 -5 -9 -2 -5 9 3 9 2 19 -2 21 -5 3 -7 17 -6 31 2 14 0 25 -5 25 -5 0 -7 11 -6 25 2 13 0 22 -5 19 -4 -2 -6 9 -4 26 2 20 0 28 -7 24 -7 -5 -9 2 -4 20 5 19 3 26 -4 21 -7 -4 -9 2 -6 19 3 14 1 26 -5 26 -5 0 -9 10 -9 23 1 31 -5 60 -13 74 -4 6 -4 18 -1 27 3 9 1 16 -4 16 -6 0 -9 9 -7 20 2 11 0 20 -5 20 -5 0 -8 14 -6 30 2 17 -1 30 -6 30 -6 0 -8 9 -5 20 3 11 1 20 -5 20 -5 0 -8 8 -6 18 2 11 -4 27 -12 37 -11 14 -11 17 -1 11 9 -6 8 -1 -3 16 -9 14 -13 28 -9 31 3 4 1 7 -6 7 -8 0 -10 7 -6 21 5 16 4 19 -6 14 -9 -6 -11 -3 -6 8 3 10 2 17 -3 17 -5 0 -7 9 -5 20 3 13 0 18 -7 14 -7 -5 -9 -1 -5 9 3 10 2 17 -4 17 -5 0 -9 6 -7 13 1 6 -3 22 -10 34 -7 12 -12 26 -11 30 1 4 -5 24 -14 43 -8 19 -13 38 -11 42 3 5 0 8 -7 8 -7 0 -9 3 -6 7 4 3 2 12 -3 19 -6 6 -10 16 -8 20 1 5 -4 20 -11 33 -11 19 -11 22 1 15 7 -4 5 2 -5 14 -11 11 -16 26 -12 31 3 6 2 11 -3 11 -8 0 -10 6 -14 49 -1 11 -7 17 -12 14 -5 -4 -7 1 -3 10 4 10 1 17 -5 17 -6 0 -8 3 -5 7 4 3 1 13 -6 21 -10 13 -9 14 3 7 10 -5 9 -1 -3 13 -11 11 -16 26 -12 31 3 6 1 11 -5 11 -6 0 -8 5 -5 10 3 6 1 10 -5 10 -7 0 -9 7 -6 16 4 10 2 13 -6 8 -8 -5 -9 -2 -5 10 4 9 3 15 -2 12 -11 -7 -23 22 -15 35 3 5 1 9 -5 9 -6 0 -7 7 -4 17 4 10 2 14 -4 10 -12 -7 -26 20 -18 33 3 4 -2 11 -11 14 -8 3 -12 10 -9 16 3 5 1 10 -5 10 -6 0 -9 4 -5 9 3 5 0 13 -6 16 -5 4 -8 13 -5 21 3 8 -1 17 -10 21 -8 3 -13 12 -10 20 3 7 -1 16 -10 20 -8 3 -13 12 -10 20 3 8 2 12 -3 9 -5 -3 -12 1 -15 10 -3 9 -2 12 5 8 6 -3 0 11 -13 32 -42 68 -42 68 -27 60 8 -4 5 0 -5 8 -11 9 -17 16 -14 16 4 0 1 12 -7 27 -8 15 -11 31 -8 36 3 6 1 7 -5 3 -11 -6 -17 13 -13 37 1 5 -2 6 -7 3 -5 -3 -14 6 -21 20 -9 20 -9 24 1 18 10 -6 11 -5 1 8 -7 8 -9 19 -5 23 4 5 2 5 -4 2 -7 -4 -14 3 -18 18 -4 14 -11 25 -17 25 -6 0 -7 5 -4 10 3 6 1 10 -5 10 -7 0 -10 7 -6 15 3 9 -2 20 -13 27 -11 6 -17 17 -14 24 2 6 -1 15 -8 20 -8 5 -10 3 -5 -7 4 -8 0 -5 -8 6 -9 11 -14 25 -12 32 3 7 0 15 -6 19 -7 5 -8 2 -4 -7 4 -8 0 -5 -8 6 -9 11 -14 25 -12 32 3 7 -2 13 -10 13 -8 0 -12 5 -9 10 3 6 1 10 -5 10 -7 0 -9 7 -6 16 3 8 2 12 -4 9 -9 -5 -12 1 -9 21 0 3 -9 14 -20 23 -11 10 -18 21 -14 25 3 3 0 6 -7 6 -7 0 -10 3 -7 7 4 3 -1 12 -11 20 -9 8 -11 12 -5 8 9 -4 11 -1 7 9 -3 9 -10 13 -15 10 -5 -3 -9 2 -9 10 0 9 -5 16 -11 16 -5 0 -7 5 -4 10 3 6 1 10 -5 10 -7 0 -9 7 -6 17 4 10 4 14 0 10 -10 -9 -37 30 -29 43 3 6 -1 10 -10 10 -9 0 -13 5 -10 10 3 6 1 10 -5 10 -7 0 -10 7 -6 15 3 9 -3 19 -14 25 -12 6 -17 16 -13 26 3 9 0 14 -8 12 -8 -2 -13 3 -11 10 1 6 -3 12 -9 12 -6 0 -8 7 -5 17 4 10 4 14 0 11 -9 -10 -39 22 -39 41 0 9 -7 16 -15 16 -8 0 -14 8 -14 18 1 9 -2 15 -6 12 -8 -5 -24 24 -22 37 1 4 -7 10 -18 13 -12 4 -17 12 -13 21 3 8 1 14 -5 12 -5 -2 -10 1 -10 5 -1 5 -13 19 -28 32 -17 14 -24 27 -19 35 5 8 4 11 -2 7 -6 -4 -19 3 -29 16 -19 21 -19 21 1 8 11 -7 4 1 -15 19 -19 18 -28 29 -20 25 8 -4 4 3 -10 16 -14 13 -19 20 -10 15 8 -5 3 3 -12 17 -16 14 -28 30 -28 34 0 5 -9 14 -21 21 -12 8 -18 19 -15 28 3 9 2 12 -5 9 -6 -4 -13 2 -16 14 -3 12 -9 21 -14 21 -5 0 -9 7 -9 16 0 9 -5 12 -12 8 -7 -5 -9 -2 -5 9 3 9 -1 21 -11 29 -16 12 -16 11 -2 -7 14 -20 14 -20 -7 -2 -13 12 -19 25 -16 35 4 10 2 14 -2 9 -11 -9 -45 21 -45 40 0 8 -4 11 -10 8 -5 -3 -10 1 -10 10 0 8 -7 18 -15 21 -8 4 -15 13 -15 21 0 8 -4 11 -10 8 -5 -3 -10 -2 -10 2 0 5 -7 18 -16 29 -8 10 -12 12 -8 4 4 -8 -11 3 -32 25 -22 22 -38 43 -36 48 2 4 -4 7 -12 7 -16 0 -48 39 -41 50 3 4 -3 14 -13 21 -16 13 -16 12 -2 -6 14 -20 14 -20 -7 -1 -13 10 -20 23 -17 27 3 5 0 9 -6 9 -16 0 -80 61 -74 71 3 5 0 9 -5 9 -19 0 -61 43 -61 62 0 11 -13 27 -30 36 -16 9 -30 22 -30 29 0 6 -5 15 -12 19 -7 5 -8 2 -3 -7 5 -8 -4 -3 -18 10 -30 27 -37 41 -9 20 15 -13 16 -12 3 3 -7 10 -18 15 -23 12 -11 -7 -60 35 -53 46 3 5 -6 11 -19 14 -14 3 -34 20 -46 36 -12 17 -27 30 -34 30 -7 0 -21 10 -32 23 l-19 22 25 -20 25 -20 -18 22 c-11 12 -25 19 -33 16 -8 -3 -14 1 -14 10 0 9 -5 19 -12 23 -7 5 -8 3 -3 -7 5 -8 -1 -5 -13 5 -24 21 -29 32 -10 20 7 -4 8 -3 4 5 -4 6 -11 9 -16 6 -4 -3 -16 3 -27 13 -10 9 -12 13 -3 7 13 -9 13 -8 1 8 -7 9 -20 17 -28 17 -8 0 -11 4 -8 10 3 6 -1 7 -9 4 -11 -4 -19 2 -25 17 -5 13 -10 20 -10 15 -1 -5 -10 3 -22 18 -11 14 -26 26 -32 26 -7 0 -23 12 -37 28 -14 15 -21 21 -15 12 6 -10 2 -9 -12 4 -13 10 -20 23 -17 27 3 5 -2 9 -11 9 -10 0 -13 5 -9 12 5 8 2 9 -9 5 -10 -3 -17 -2 -17 3 0 5 -9 12 -20 15 -11 4 -18 9 -16 13 2 4 -8 16 -23 27 -26 19 -26 19 -11 0 14 -19 14 -19 -5 -5 -11 8 -29 24 -40 35 -11 12 -16 14 -10 5 5 -8 -11 3 -35 25 -24 22 -38 31 -30 20 l15 -20 -25 20 c-14 11 -31 27 -38 35 -12 13 -13 13 -7 0 4 -8 -2 -6 -12 5 -10 12 -27 27 -37 35 -16 12 -18 12 -11 1 5 -10 4 -12 -3 -7 -7 4 -12 14 -12 22 0 8 -4 12 -10 9 -5 -3 -10 -1 -10 4 0 6 -7 11 -16 11 -18 0 -66 35 -58 42 3 3 -2 8 -11 12 -11 4 -14 2 -10 -7 4 -6 -1 -3 -9 7 -9 11 -16 16 -16 10 0 -5 -5 -2 -10 8 -6 9 -30 26 -55 38 -25 12 -43 25 -40 30 3 4 -2 11 -11 14 -10 4 -13 2 -9 -7 4 -6 -1 -3 -9 7 -9 11 -16 16 -16 10 0 -5 -5 -1 -11 8 -5 10 -19 23 -31 29 -16 9 -19 8 -13 -3 5 -7 -7 1 -25 17 -18 17 -30 24 -25 17 6 -11 3 -12 -14 -3 -11 7 -21 16 -21 22 0 6 -5 7 -11 4 -5 -4 -19 1 -30 11 -10 9 -19 13 -19 8 0 -5 -5 -1 -11 9 -6 9 -15 14 -21 11 -6 -4 -20 4 -30 17 -11 13 -17 17 -13 9 4 -10 2 -9 -8 2 -8 10 -17 14 -21 10 -4 -4 -14 2 -22 12 -8 11 -14 16 -14 12 0 -4 -14 3 -32 15 -18 14 -28 17 -24 8 6 -11 5 -11 -6 1 -7 8 -22 22 -32 30 -18 13 -19 13 -12 0 4 -9 2 -8 -7 2 -8 10 -17 15 -21 11 -3 -3 -18 4 -33 18 -14 13 -23 17 -19 9 5 -9 2 -8 -7 2 -8 10 -17 15 -20 11 -4 -3 -7 -1 -7 6 0 7 -4 10 -9 7 -5 -3 -12 1 -15 10 -3 9 -12 14 -19 11 -6 -2 -18 3 -25 12 -11 13 -12 13 -6 1 4 -8 -5 -4 -21 10 -16 14 -24 18 -20 10 6 -11 3 -10 -12 3 -11 9 -23 14 -26 10 -4 -3 -7 0 -7 7 0 7 -3 10 -7 7 -3 -4 -15 1 -26 10 -15 13 -18 14 -12 3 5 -9 -1 -7 -15 5 -15 13 -21 15 -16 5 4 -8 0 -6 -8 4 -9 11 -16 16 -16 12 0 -5 -12 -1 -26 9 -18 11 -24 13 -19 4 5 -8 -2 -5 -15 6 -13 11 -20 13 -15 6 5 -8 -6 -5 -24 8 -17 13 -38 20 -46 17 -8 -3 -19 2 -24 12 -5 9 -13 13 -17 9 -4 -4 -16 1 -27 10 -11 10 -17 12 -13 6 5 -9 2 -11 -8 -7 -9 3 -16 11 -16 16 0 6 -7 8 -15 4 -8 -3 -15 -1 -15 5 0 6 -4 7 -10 4 -5 -3 -10 -1 -10 5 0 6 -4 9 -9 5 -5 -3 -13 0 -16 6 -4 5 -14 8 -22 5 -8 -3 -12 -2 -9 3 3 5 -1 12 -10 15 -10 4 -13 2 -8 -7 5 -8 2 -7 -9 2 -9 7 -17 10 -17 5 0 -4 -7 1 -15 12 -8 10 -15 15 -15 10 0 -5 -8 -2 -17 5 -11 9 -14 10 -9 2 5 -9 2 -11 -8 -7 -9 3 -13 11 -9 17 4 6 0 8 -10 4 -10 -3 -17 -2 -17 3 0 5 -7 6 -17 3 -12 -5 -14 -3 -8 7 6 10 4 12 -8 7 -10 -3 -17 -2 -17 4 0 6 -4 7 -10 4 -5 -3 -10 -1 -10 5 0 6 -11 8 -25 6 -16 -3 -23 -1 -19 6 4 6 1 9 -7 6 -8 -3 -25 -1 -39 4 -29 11 -60 19 -77 20 -7 1 -13 5 -13 9 0 4 -8 6 -17 4 -10 -1 -31 4 -46 12 -15 7 -32 11 -38 7 -6 -4 -14 -2 -18 4 -5 9 -52 22 -93 25 -9 1 -14 6 -11 11 4 5 -1 7 -10 3 -10 -3 -17 -2 -17 3 0 5 -9 7 -20 5 -11 -2 -20 0 -20 5 0 5 -9 7 -20 5 -11 -2 -22 1 -25 6 -4 5 -11 7 -16 4 -5 -4 -9 -1 -9 6 0 7 -3 9 -6 6 -4 -3 -16 -2 -27 4 -15 9 -18 8 -11 -3 6 -10 5 -11 -8 -1 -8 7 -18 10 -21 6 -4 -3 -7 -1 -7 6 0 8 -7 11 -15 7 -8 -3 -15 -2 -15 2 0 4 -9 9 -20 10 -43 4 -50 6 -50 12 0 4 -13 6 -30 5 -16 -1 -30 2 -30 7 0 5 -13 7 -30 4 -17 -2 -30 0 -30 6 0 6 -7 7 -16 4 -8 -3 -25 -1 -36 5 -16 9 -19 8 -12 -3 7 -11 5 -11 -9 0 -9 8 -25 11 -36 7 -10 -3 -22 -1 -25 4 -4 5 -15 8 -26 6 -11 -2 -20 0 -20 4 0 5 -15 9 -32 10 -82 4 -96 6 -91 13 2 5 -7 7 -21 4 -14 -3 -28 0 -31 5 -3 5 -16 7 -28 5 -12 -2 -28 2 -36 8 -12 9 -13 8 -6 -4 8 -13 6 -13 -8 -2 -9 8 -21 11 -26 8 -5 -4 -12 -2 -15 3 -3 5 -24 8 -46 7 -22 -1 -40 2 -40 7 0 4 -13 6 -30 3 -16 -2 -30 0 -30 5 0 4 -20 7 -45 5 -25 -2 -45 0 -45 4 0 4 -45 7 -99 6 -55 -1 -97 2 -95 5 2 3 -39 5 -91 5 -51 -1 -92 1 -89 5 2 4 -39 6 -91 5 -53 -1 -98 1 -101 4 -3 3 -1411 6 -3129 7 l-3123 2 0 -5010z m6233 -262 c22 -1 46 -6 54 -11 11 -7 12 -6 6 5 -7 11 -6 12 6 2 9 -7 32 -11 52 -10 20 2 37 0 37 -3 0 -4 23 -6 50 -6 28 1 50 -2 50 -7 0 -5 7 -6 16 -3 10 4 13 2 8 -6 -5 -7 0 -9 14 -6 12 4 20 2 16 -3 -5 -9 -1 -10 46 -13 14 -1 35 -8 48 -14 12 -7 28 -10 34 -6 7 5 8 3 3 -6 -6 -9 -2 -10 15 -5 17 5 21 4 15 -6 -6 -9 -2 -11 13 -7 14 4 20 2 15 -5 -4 -6 0 -8 10 -4 9 3 19 2 22 -4 4 -5 11 -7 16 -4 5 4 9 2 9 -4 0 -5 9 -8 20 -6 13 2 18 0 14 -7 -4 -6 -1 -9 7 -6 7 2 22 -4 33 -14 11 -10 28 -18 38 -18 11 0 17 -4 14 -9 -3 -5 1 -12 10 -15 10 -4 13 -2 9 7 -4 6 0 4 9 -7 8 -10 20 -15 27 -10 7 4 10 3 5 -4 -3 -6 3 -14 15 -17 11 -4 30 -16 41 -27 11 -11 26 -17 34 -14 10 4 12 2 8 -6 -5 -8 -2 -9 9 -5 9 3 19 1 23 -5 4 -7 3 -8 -4 -4 -7 4 -12 5 -12 2 0 -3 15 -12 33 -19 17 -8 50 -33 73 -55 23 -23 44 -39 48 -35 3 3 6 1 6 -6 0 -7 5 -9 13 -5 6 4 9 3 4 -1 -9 -10 21 -45 39 -45 7 0 16 -5 20 -12 5 -7 3 -8 -7 -3 -12 8 -12 6 0 -9 8 -9 21 -14 30 -11 8 3 12 3 9 -1 -9 -8 81 -104 95 -101 6 1 11 -5 12 -14 0 -9 9 -25 20 -35 12 -11 16 -17 10 -14 -6 3 -2 -3 8 -12 11 -10 15 -18 11 -18 -5 -1 5 -12 21 -26 17 -15 23 -23 15 -19 -8 4 -4 -3 10 -16 14 -13 19 -19 11 -14 -8 6 -2 -7 14 -27 17 -21 33 -38 38 -38 4 0 7 -6 7 -14 0 -8 5 -18 12 -22 7 -5 8 -2 3 7 -5 8 -5 11 -1 7 4 -3 7 -9 7 -12 -1 -4 6 -20 14 -36 9 -17 12 -30 8 -30 -4 0 2 -7 13 -16 10 -8 13 -12 6 -9 -11 6 -12 3 -3 -13 6 -12 16 -24 21 -27 6 -4 8 -11 4 -16 -3 -6 2 -19 12 -30 9 -10 13 -19 8 -19 -5 0 -4 -4 3 -8 6 -4 13 -16 15 -27 1 -11 10 -26 18 -33 8 -8 9 -11 2 -7 -10 5 -10 1 -1 -19 7 -14 15 -23 20 -21 4 3 6 -3 5 -12 -2 -10 1 -20 5 -23 5 -3 9 -20 11 -38 1 -18 5 -32 9 -32 4 0 6 -12 3 -26 -3 -18 -1 -23 7 -18 8 4 9 3 5 -5 -4 -6 -2 -19 6 -28 11 -14 11 -16 -1 -8 -11 6 -12 5 -5 -6 5 -8 9 -17 10 -21 1 -5 3 -10 4 -13 1 -3 4 -17 6 -32 4 -34 12 -77 14 -80 2 -2 3 -6 4 -10 1 -5 5 -14 10 -22 7 -10 6 -12 -4 -6 -9 6 -11 4 -4 -6 10 -17 12 -419 1 -419 -4 0 -5 -11 -3 -25 3 -15 1 -23 -5 -19 -6 3 -8 -5 -5 -20 3 -14 1 -28 -4 -31 -4 -3 -7 -16 -5 -30 1 -14 -2 -28 -7 -31 -4 -3 -6 -10 -3 -15 4 -5 1 -9 -4 -9 -6 0 -11 -10 -11 -22 -1 -13 -1 -35 -1 -50 -1 -16 -5 -28 -10 -28 -5 0 -7 -11 -5 -25 3 -14 0 -25 -5 -25 -6 0 -7 -4 -4 -10 3 -5 1 -10 -5 -10 -6 0 -8 -4 -5 -10 3 -5 2 -10 -4 -10 -6 0 -8 -7 -5 -15 4 -8 2 -15 -4 -15 -5 0 -13 -7 -16 -16 -4 -10 -2 -13 7 -9 6 4 4 0 -5 -8 -10 -8 -15 -17 -11 -20 3 -4 1 -7 -6 -7 -8 0 -11 -7 -7 -15 3 -8 1 -15 -5 -15 -6 0 -7 -4 -4 -10 3 -5 2 -10 -4 -10 -6 0 -8 -6 -5 -13 3 -8 -2 -20 -10 -27 -9 -7 -13 -16 -10 -21 3 -5 0 -9 -6 -9 -6 0 -8 -4 -5 -10 3 -5 1 -10 -5 -10 -6 0 -9 -4 -6 -9 3 -5 -1 -14 -10 -21 -8 -7 -13 -19 -10 -26 3 -7 -2 -15 -11 -18 -8 -4 -13 -13 -9 -21 3 -9 0 -15 -10 -15 -8 0 -12 -4 -9 -10 3 -5 1 -10 -5 -10 -6 0 -8 -5 -4 -12 4 -6 3 -8 -3 -5 -13 8 -37 -19 -29 -32 4 -5 1 -13 -5 -17 -8 -5 -9 -3 -4 6 6 9 4 11 -4 6 -7 -5 -10 -15 -7 -23 3 -8 1 -11 -4 -8 -6 3 -10 -1 -10 -10 0 -9 -4 -13 -10 -10 -5 3 -10 -1 -10 -9 0 -8 -8 -20 -17 -25 -10 -6 -14 -11 -9 -11 6 0 1 -7 -10 -16 -10 -8 -12 -13 -4 -9 8 3 5 -2 -7 -11 -13 -9 -23 -21 -23 -26 0 -5 -13 -21 -30 -35 -16 -13 -30 -31 -30 -39 0 -8 -4 -13 -9 -11 -5 1 -17 -7 -26 -18 -9 -11 -13 -14 -9 -6 5 9 3 12 -4 7 -7 -4 -12 -14 -12 -22 0 -8 -5 -13 -12 -11 -6 1 -17 -8 -23 -21 -7 -13 -16 -24 -21 -25 -5 -1 -8 -6 -6 -10 1 -5 -2 -6 -8 -2 -14 9 -42 -14 -33 -28 3 -5 2 -7 -4 -4 -12 8 -66 -47 -56 -57 4 -4 -1 -4 -11 0 -15 6 -17 4 -11 -6 6 -9 4 -11 -5 -5 -8 5 -18 1 -27 -10 -7 -11 -13 -15 -13 -10 0 5 -7 0 -16 -11 -8 -10 -13 -12 -9 -4 4 8 -3 4 -15 -10 -12 -14 -19 -19 -15 -13 4 9 1 11 -9 7 -9 -3 -13 -11 -9 -17 3 -6 1 -7 -6 -3 -7 5 -19 0 -29 -12 -9 -10 -23 -17 -31 -14 -9 3 -11 0 -6 -7 4 -8 1 -11 -8 -9 -9 2 -23 -6 -32 -17 -9 -11 -13 -14 -10 -7 6 11 3 11 -13 1 -12 -7 -19 -17 -16 -21 3 -4 -3 -5 -12 -1 -13 5 -15 3 -9 -7 6 -10 4 -12 -8 -7 -10 3 -17 2 -17 -3 0 -5 -7 -7 -15 -4 -8 4 -15 1 -15 -6 0 -6 -4 -8 -10 -5 -5 3 -10 2 -10 -3 0 -6 -10 -8 -22 -4 -14 3 -19 1 -14 -6 4 -7 -1 -10 -14 -7 -11 2 -20 0 -20 -4 0 -4 -7 -8 -15 -9 -8 -1 -22 -3 -30 -4 -8 -1 -15 -5 -15 -9 0 -5 -7 -5 -17 -2 -10 4 -14 2 -10 -4 4 -6 -1 -10 -11 -10 -43 0 -53 -3 -46 -15 4 -7 4 -10 -1 -6 -4 4 -15 2 -23 -5 -13 -10 -14 -9 -7 3 8 13 7 13 -9 0 -11 -8 -29 -13 -41 -12 -13 2 -26 -1 -29 -6 -3 -4 -25 -7 -51 -6 -25 1 -43 -1 -41 -5 2 -3 -18 -6 -45 -5 -27 1 -49 -1 -49 -5 0 -4 -25 -6 -55 -5 -30 1 -53 -1 -51 -5 2 -3 -199 -6 -447 -6 l-452 0 2 1760 c0 968 2 1767 2 1775 1 13 58 15 459 12 251 -1 475 -4 497 -5z"
       id="path8"
       style="fill:#000000" />
    <path
       d="M2768 3444 c-3 -3 -70 -5 -149 -6 -123 0 -175 -6 -359 -40 -118 -21 -223 -39 -233 -39 -10 0 -31 -5 -45 -11 -33 -14 -38 -15 -58 -17 -8 0 -13 -5 -10 -10 4 -5 -3 -7 -14 -4 -12 3 -20 0 -20 -6 0 -7 -4 -9 -10 -6 -5 3 -16 3 -22 -2 -7 -4 -19 -8 -26 -9 -8 -2 -21 -6 -30 -10 -22 -9 -29 -11 -48 -13 -8 0 -13 -5 -10 -10 4 -5 -4 -7 -16 -3 -13 3 -19 1 -15 -5 5 -7 -1 -9 -15 -5 -12 3 -19 1 -15 -4 3 -5 -3 -11 -14 -12 -43 -4 -49 -6 -49 -15 0 -6 -3 -7 -7 -4 -3 4 -17 0 -31 -9 -13 -9 -21 -11 -18 -5 5 7 1 9 -8 5 -9 -3 -16 -10 -16 -16 0 -5 -4 -6 -10 -3 -5 3 -10 1 -10 -4 0 -6 -7 -11 -17 -11 -9 0 -32 -12 -51 -27 -20 -15 -32 -21 -28 -15 5 8 2 10 -8 6 -9 -3 -16 -10 -16 -15 0 -5 -8 -9 -18 -9 -10 0 -27 -7 -38 -16 -10 -8 -12 -12 -4 -8 11 5 12 4 4 -5 -6 -7 -21 -13 -33 -14 -11 -1 -21 -5 -21 -10 0 -4 -4 -5 -10 -2 -5 3 -10 1 -10 -6 0 -7 -3 -9 -7 -6 -3 4 -12 -1 -20 -11 -9 -10 -12 -11 -7 -2 4 8 -5 4 -21 -10 -16 -14 -25 -18 -20 -10 5 8 -4 4 -20 -10 -16 -14 -24 -18 -20 -10 6 11 3 10 -12 -3 -11 -9 -22 -14 -25 -11 -4 3 -9 -4 -13 -15 -3 -12 -11 -19 -16 -16 -5 4 -9 1 -9 -6 0 -7 -3 -9 -6 -6 -4 4 -18 -6 -32 -21 -13 -15 -21 -20 -17 -12 4 8 -2 4 -13 -9 -10 -13 -24 -21 -29 -18 -6 4 -17 -1 -24 -11 -13 -15 -12 -16 4 -3 9 7 17 11 17 8 0 -3 -15 -16 -32 -28 -19 -13 -29 -17 -23 -8 6 8 -2 2 -16 -15 -14 -16 -31 -26 -37 -22 -6 3 -14 1 -18 -5 -5 -8 -3 -9 6 -4 9 5 11 4 6 -3 -4 -7 -16 -12 -26 -12 -10 0 -28 -12 -40 -27 -12 -16 -19 -21 -15 -13 4 8 -2 4 -13 -9 -11 -14 -28 -26 -37 -27 -10 -1 -25 -11 -34 -20 -15 -17 -15 -17 2 -5 9 8 17 11 17 7 0 -3 -15 -15 -33 -26 -17 -11 -29 -20 -25 -20 5 0 -1 -9 -12 -20 -11 -11 -25 -20 -31 -20 -5 0 -7 -4 -4 -10 3 -5 0 -10 -8 -10 -8 0 -22 -10 -33 -22 l-19 -23 25 20 25 20 -19 -22 c-11 -13 -25 -23 -32 -23 -7 0 -16 -5 -20 -12 -5 -7 -2 -8 7 -3 8 4 3 -3 -11 -16 -14 -14 -27 -24 -29 -23 -7 6 -80 -69 -75 -77 3 -5 -2 -9 -10 -9 -9 0 -16 -7 -16 -16 0 -8 -5 -12 -10 -9 -6 3 -10 -1 -10 -9 0 -8 -5 -18 -12 -22 -7 -5 -8 -3 -3 6 5 8 4 11 -1 7 -5 -3 -20 -26 -33 -51 -12 -25 -25 -46 -27 -46 -3 0 -2 5 2 12 5 7 3 8 -5 4 -7 -5 -10 -14 -7 -21 3 -8 -4 -17 -15 -20 -13 -4 -18 -12 -15 -22 4 -9 -1 -17 -15 -20 -12 -4 -18 -11 -15 -20 3 -8 2 -12 -2 -10 -4 3 -16 -5 -27 -16 -11 -11 -13 -17 -5 -12 8 4 2 -4 -14 -19 -16 -14 -25 -26 -20 -26 4 0 -1 -7 -13 -15 -13 -9 -20 -22 -17 -30 4 -9 0 -15 -10 -15 -8 0 -20 -9 -26 -20 -6 -11 -8 -20 -4 -20 3 0 1 -7 -6 -15 -6 -8 -9 -19 -5 -25 3 -5 2 -10 -3 -10 -5 0 -9 -6 -9 -12 0 -7 -4 -26 -8 -43 -13 -56 -17 -80 -18 -102 -1 -11 -6 -19 -10 -16 -5 3 -7 -5 -6 -18 2 -13 -2 -33 -8 -44 -12 -23 -12 -433 0 -453 5 -7 11 -25 13 -39 3 -15 8 -30 12 -33 4 -3 8 -21 10 -40 1 -19 7 -37 12 -38 6 -2 8 -8 5 -13 -10 -15 34 -150 54 -169 4 -3 19 -33 35 -67 16 -34 34 -59 39 -56 6 3 7 1 4 -4 -14 -23 114 -209 135 -197 5 3 7 2 6 -3 -5 -14 104 -133 115 -126 6 3 7 2 4 -4 -10 -17 96 -99 113 -88 6 4 9 2 8 -4 -3 -10 167 -131 192 -136 8 -2 16 -4 18 -5 1 -2 5 -3 10 -4 4 -1 25 -10 47 -20 22 -10 50 -19 62 -19 13 -1 23 -5 23 -8 0 -7 145 -60 157 -57 4 1 24 -2 43 -5 19 -4 62 -9 95 -12 33 -3 91 -9 128 -13 64 -8 226 6 214 18 -3 3 16 6 41 6 26 1 61 4 77 6 17 3 43 6 58 6 16 1 26 6 23 11 -4 5 2 7 12 4 11 -2 25 2 33 10 8 7 19 12 25 10 7 -2 18 2 25 9 8 7 19 13 24 13 22 1 85 27 85 36 0 6 4 8 10 4 5 -3 17 -1 27 4 10 5 33 15 50 21 18 7 30 17 26 23 -3 6 -1 7 5 3 6 -3 22 5 35 18 14 14 28 22 31 19 3 -3 8 2 12 11 3 9 10 14 14 11 5 -3 15 3 22 13 7 11 18 21 23 23 6 2 9 8 7 12 -1 5 3 5 9 1 7 -4 18 1 25 10 7 10 14 16 17 14 10 -6 87 63 81 73 -3 5 0 8 8 7 7 -2 12 3 10 10 -1 8 2 11 8 7 5 -3 14 5 19 18 5 13 17 27 26 31 9 3 13 11 9 17 -4 8 -3 9 4 5 13 -8 35 28 24 39 -4 5 -2 5 5 1 7 -3 21 7 34 26 12 18 34 42 47 54 15 12 22 26 18 32 -4 7 0 15 9 18 9 4 14 13 11 21 -3 8 -2 12 3 9 4 -3 13 6 20 20 9 20 9 24 -1 19 -7 -4 -5 0 4 8 10 8 15 17 11 20 -3 4 -1 7 6 7 8 0 11 6 7 16 -3 8 -2 12 4 9 5 -3 12 7 16 22 4 15 10 30 13 33 3 3 12 16 19 29 11 19 11 22 0 16 -7 -5 -3 2 10 14 23 23 29 37 11 25 -6 -3 -4 5 5 18 9 14 13 28 9 31 -3 4 -2 7 4 7 5 0 10 6 10 13 1 21 8 42 16 48 4 3 9 16 10 27 1 12 6 22 11 22 5 0 6 3 3 7 -4 3 -1 13 6 21 10 13 9 14 -3 7 -9 -5 -7 1 5 15 12 14 14 20 5 15 -12 -7 -13 -6 -3 7 7 8 9 19 5 23 -4 5 -2 5 4 2 7 -4 17 10 26 38 8 24 11 42 5 38 -5 -3 -2 6 7 19 9 14 13 28 9 31 -3 4 -2 7 4 7 6 0 14 7 17 16 3 8 2 13 -3 10 -5 -3 -1 10 9 30 11 20 16 42 14 49 -3 7 0 16 5 20 6 3 9 11 5 16 -3 5 -1 15 4 22 5 7 10 19 11 27 2 33 7 56 14 67 4 6 4 18 1 27 -3 9 -1 16 5 16 7 0 9 10 7 25 -3 14 -1 25 4 25 5 0 7 9 5 20 -2 11 0 20 6 20 5 0 7 11 5 25 -3 14 -1 23 5 20 5 -4 9 4 9 17 1 52 5 76 13 71 5 -3 8 3 7 13 -1 11 -1 21 0 24 4 8 20 174 25 246 1 23 5 46 7 50 5 9 8 44 11 144 1 30 4 57 7 60 7 7 -6 546 -14 595 -7 36 -56 394 -56 402 0 5 -206 3 -212 -3z"
       id="path10"
       style="fill:#000000" />
  </g>
</svg>
