<?xml version="1.0" encoding="utf-8"?><svg version="1.1" id="Layer_1" xmlns="http://www.w3.org/2000/svg" xmlns:xlink="http://www.w3.org/1999/xlink" x="0px" y="0px" viewBox="0 0 200 200" enable-background="new 0 0 200 200" xml:space="preserve"><path fill="#fff" d="M187.5,0h-175C6.2,0,0,6.2,0,12.5v175c0,6.2,6.2,12.5,12.5,12.5h175c6.2,0,12.5-6.2,12.5-12.5v-175C200,6.2,193.8,0,187.5,0z M100,62.5c21.2,0,37.5,16.2,37.5,37.5s-16.2,37.5-37.5,37.5S62.5,121.2,62.5,100S78.8,62.5,100,62.5z M175,175H25V87.5h13.8c-1.2,3.8-1.2,8.8-1.2,12.5c0,35,27.5,62.5,62.5,62.5s62.5-27.5,62.5-62.5c0-3.8,0-8.8-1.2-12.5H175V175z M156.2,62.5c-10,0-18.8-8.7-18.8-18.8S146.2,25,156.2,25S175,33.8,175,43.8S166.2,62.5,156.2,62.5z"/></svg>