<?xml version="1.0" encoding="utf-8"?><svg version="1.1" id="Layer_1" xmlns="http://www.w3.org/2000/svg" xmlns:xlink="http://www.w3.org/1999/xlink" x="0px" y="0px" viewBox="0 0 200 200" enable-background="new 0 0 200 200" xml:space="preserve"><path fill="#999999" d="M200,37.6c-7.1,3.5-15.3,5.9-23.5,7.1c8.2-4.7,15.3-12.9,17.6-23.5c-8.2,4.7-16.5,8.2-25.9,10.6c-7.1-9.4-17.6-14.1-29.4-14.1c-27.1,0-45.9,24.7-40,50.6c-34.1-1.2-64.7-17.6-84.7-43.5c-10.6,18.7-5.9,43.4,13,56.4c-7.1,0-12.9-2.4-18.8-4.7c0,18.8,12.9,37.6,32.9,41.2c-5.9,1.2-11.8,1.2-18.8,0c4.7,16.5,20,28.2,38.8,29.4c-17.6,14.1-38.8,20-61.2,17.6c17.6,11.8,40,18.8,62.4,18.8c76.5,0,118.8-64.7,116.5-123.5C187.1,52.9,194.1,45.9,200,37.6z"/></svg>